<?xml version="1.0" encoding="utf-8"?>
<!-- Generator: Adobe Illustrator 20.1.0, SVG Export Plug-In . SVG Version: 6.00 Build 0)  -->
<svg version="1.1" id="Layer_1" xmlns="http://www.w3.org/2000/svg" xmlns:xlink="http://www.w3.org/1999/xlink" x="0px" y="0px"
	 viewBox="0 0 250 102.1" style="enable-background:new 0 0 250 102.1;" xml:space="preserve">
<style type="text/css">
	.st0{fill:#242424;}
</style>
<g>
	<path class="st0" d="M187.6,89.4c-5,0-9.8,0-14.9,0c0-0.7,0-1.4,0-2c0-16.3,0-32.6,0-48.9c0-5.2-2.2-8.5-6.7-9.8
		c-5.1-1.6-10.8,0-13.2,4c-1,1.6-1.5,3.7-1.5,5.6c-0.1,16.4-0.1,32.7-0.1,49.1c0,0.7,0,1.3,0,2.1c-5,0-9.9,0-14.9,0
		c0-0.7-0.1-1.3-0.1-2c0-16.3,0.2-32.6-0.1-48.9c-0.2-12.7,8.4-21.8,20.4-23.6c10-1.5,18.8,1.3,25.7,8.7c3.6,3.9,5.4,8.6,5.4,13.9
		c0,16.7,0,33.4,0,50.1C187.6,88.2,187.6,88.7,187.6,89.4z"/>
	<path class="st0" d="M249.8,32.9c-12.1-4.5-22.6-2.9-30.7,7.4c-5.8,7.4-6.5,15.8-1.9,24.2c3.7,6.7,8.7,11.7,17,12.5
		c0-3.8,0-7.4,0-11.2c-1.8,0-3.7,0.1-5.5,0c-0.4,0-1.2-0.6-1.2-0.9c-0.1-4.2-0.1-8.5-0.1-12.8c7.5,0,14.9,0,22.4,0
		c0,0.6,0.1,1.2,0.1,1.8c0,11.3,0,22.6,0,34c0,1.3-0.4,1.9-1.7,2.2c-27.1,6.6-46.6-11.8-49.1-32.4c-1.6-13.5,2.8-24.9,13.5-33.5
		c9.9-7.9,21.2-11,33.8-8.1c0.4,0.1,0.9,0.3,1.3,0.3c1.6,0.2,2,1.1,2,2.7c-0.1,4,0,8,0,12.1C249.8,31.7,249.8,32.3,249.8,32.9z"/>
	<path class="st0" d="M0,16.1c0.2-0.1,0.3-0.2,0.4-0.2c8.3,0,16.5-0.4,24.8,0.1c11.4,0.7,19.5,8,20.9,18.1
		c1.6,11.7-4.4,22.2-15,26.3c-3.1,1.2-6.3,1.6-9.7,1.5c-2.1-0.1-4.3,0-6.6,0c0,4.8,0,9.3,0,13.9c0,4.6,0,9.1,0,13.8
		c-5,0-9.8,0-14.8,0C0,65.1,0,40.7,0,16.1z M15.3,29.4c0,6.5,0,12.8,0,19.2c2.5,0,4.8,0,7.1,0c4.3,0,8.1-3,9.6-7.5
		c1.2-3.8-0.2-8.2-3.7-10.6c-0.7-0.5-1.5-1-2.3-1C22.5,29.3,18.9,29.4,15.3,29.4z"/>
</g>
<g>
	<path class="st0" d="M125.3,51.7c-0.8,2.8-1.3,5.7-2.4,8.4c-4.1,10.1-10.7,17.9-20.8,22.3c-4.7,2-4.7,1.9-8.3-1.7
		C82.8,69.3,71.7,58,60.6,46.8c-0.8-0.8-1.1-1.6-0.8-2.8c1.9-8.2,6.6-14.4,13.1-19.3c5.8-4.4,12.1-7.4,19.4-7.9
		c10.9-0.8,19.5,3.9,26.3,12.3c3.4,4.1,5.5,8.8,6.3,14.1c0.1,0.4,0.2,0.7,0.3,1.1C125.3,46.7,125.3,49.2,125.3,51.7z"/>
	<path class="st0" d="M52.4,99.7c-2.9-1.3-5.3-3.2-7.1-5.9c-2.3-3.4-2.1-5.6,0.9-8.2c4.3-3.8,8.7-7.4,13.2-11.1c1.6-1.3,2.2-3,2.3-5
		c0.1-2.8-0.2-5.4-1.2-8.1c-1-2.6-1.3-5.5-1.9-8.4C69,63.7,79.2,74.2,89.3,84.5c-2.7,0.1-5.6-0.6-8.6-1.5c-1.2-0.3-2.3-0.7-3.5-0.9
		c-4.3-0.7-7.9,0.4-10.6,4.2c-2.6,3.6-5.5,7.1-8.3,10.5c-0.9,1.1-2.2,1.9-3.4,2.8C54.1,99.7,53.2,99.7,52.4,99.7z"/>
	<ellipse class="st0" cx="59.7" cy="11.7" rx="8.8" ry="9"/>
</g>
</svg>
